<svg width="800" height="600" xmlns="http://www.w3.org/2000/svg" version="1.1"><g transform="translate(50,0)"><text x="-50" y="23" style="font-size: 10px; font-family: Arial, Helvetica;">German</text><g class="y axis" transform="translate(0,30)" style="font-size: 10px; font-family: Arial, Helvetica;"><g class="tick" transform="translate(0,163.33333333333334)" style="opacity: 1;"><line x2="-6" y2="0" style="shape-rendering: crispEdges; fill: none; stroke: rgb(204, 204, 204);"></line><text dy=".32em" x="-9" y="0" style="text-anchor: end;">0.00</text></g><g class="tick" transform="translate(0,142.91666666666669)" style="opacity: 1;"><line x2="-6" y2="0" style="shape-rendering: crispEdges; fill: none; stroke: rgb(204, 204, 204);"></line><text dy=".32em" x="-9" y="0" style="text-anchor: end;">0.02</text></g><g class="tick" transform="translate(0,122.5)" style="opacity: 1;"><line x2="-6" y2="0" style="shape-rendering: crispEdges; fill: none; stroke: rgb(204, 204, 204);"></line><text dy=".32em" x="-9" y="0" style="text-anchor: end;">0.04</text></g><g class="tick" transform="translate(0,102.08333333333334)" style="opacity: 1;"><line x2="-6" y2="0" style="shape-rendering: crispEdges; fill: none; stroke: rgb(204, 204, 204);"></line><text dy=".32em" x="-9" y="0" style="text-anchor: end;">0.06</text></g><g class="tick" transform="translate(0,81.66666666666667)" style="opacity: 1;"><line x2="-6" y2="0" style="shape-rendering: crispEdges; fill: none; stroke: rgb(204, 204, 204);"></line><text dy=".32em" x="-9" y="0" style="text-anchor: end;">0.08</text></g><g class="tick" transform="translate(0,61.25)" style="opacity: 1;"><line x2="-6" y2="0" style="shape-rendering: crispEdges; fill: none; stroke: rgb(204, 204, 204);"></line><text dy=".32em" x="-9" y="0" style="text-anchor: end;">0.10</text></g><g class="tick" transform="translate(0,40.833333333333336)" style="opacity: 1;"><line x2="-6" y2="0" style="shape-rendering: crispEdges; fill: none; stroke: rgb(204, 204, 204);"></line><text dy=".32em" x="-9" y="0" style="text-anchor: end;">0.12</text></g><g class="tick" transform="translate(0,20.41666666666665)" style="opacity: 1;"><line x2="-6" y2="0" style="shape-rendering: crispEdges; fill: none; stroke: rgb(204, 204, 204);"></line><text dy=".32em" x="-9" y="0" style="text-anchor: end;">0.14</text></g><g class="tick" transform="translate(0,0)" style="opacity: 1;"><line x2="-6" y2="0" style="shape-rendering: crispEdges; fill: none; stroke: rgb(204, 204, 204);"></line><text dy=".32em" x="-9" y="0" style="text-anchor: end;">0.16</text></g><path class="domain" d="M-6,0H0V163.33333333333334H-6" style="shape-rendering: crispEdges; fill: none; stroke: rgb(204, 204, 204);"></path></g><rect transform="translate(0,30)" class="bar" x="12" width="25" y="91.875" height="71.45833333333334" style="fill: rgb(148, 105, 191);"></rect><rect transform="translate(0,30)" class="bar" x="40" width="25" y="142.91666666666669" height="20.416666666666657" style="fill: rgb(148, 105, 191);"></rect><rect transform="translate(0,30)" class="bar" x="68" width="25" y="132.70833333333334" height="30.625" style="fill: rgb(148, 105, 191);"></rect><rect transform="translate(0,30)" class="bar" x="96" width="25" y="112.29166666666667" height="51.04166666666667" style="fill: rgb(148, 105, 191);"></rect><rect transform="translate(0,30)" class="bar" x="124" width="25" y="0" height="163.33333333333334" style="fill: rgb(191, 105, 105);"></rect><rect transform="translate(0,30)" class="bar" x="152" width="25" y="142.91666666666669" height="20.416666666666657" style="fill: rgb(148, 105, 191);"></rect><rect transform="translate(0,30)" class="bar" x="180" width="25" y="132.70833333333334" height="30.625" style="fill: rgb(148, 105, 191);"></rect><rect transform="translate(0,30)" class="bar" x="208" width="25" y="112.29166666666667" height="51.04166666666667" style="fill: rgb(148, 105, 191);"></rect><rect transform="translate(0,30)" class="bar" x="236" width="25" y="91.875" height="71.45833333333334" style="fill: rgb(148, 105, 191);"></rect><rect transform="translate(0,30)" class="bar" x="264" width="25" y="163.33333333333334" height="0" style="fill: rgb(148, 105, 191);"></rect><rect transform="translate(0,30)" class="bar" x="292" width="25" y="153.125" height="10.208333333333343" style="fill: rgb(148, 105, 191);"></rect><rect transform="translate(0,30)" class="bar" x="320" width="25" y="132.70833333333334" height="30.625" style="fill: rgb(148, 105, 191);"></rect><rect transform="translate(0,30)" class="bar" x="348" width="25" y="132.70833333333334" height="30.625" style="fill: rgb(148, 105, 191);"></rect><rect transform="translate(0,30)" class="bar" x="376" width="25" y="61.25" height="102.08333333333334" style="fill: rgb(148, 191, 105);"></rect><rect transform="translate(0,30)" class="bar" x="404" width="25" y="132.70833333333334" height="30.625" style="fill: rgb(148, 105, 191);"></rect><rect transform="translate(0,30)" class="bar" x="432" width="25" y="153.125" height="10.208333333333343" style="fill: rgb(148, 105, 191);"></rect><rect transform="translate(0,30)" class="bar" x="460" width="25" y="163.33333333333334" height="0" style="fill: rgb(148, 105, 191);"></rect><rect transform="translate(0,30)" class="bar" x="488" width="25" y="91.875" height="71.45833333333334" style="fill: rgb(148, 105, 191);"></rect><rect transform="translate(0,30)" class="bar" x="516" width="25" y="91.875" height="71.45833333333334" style="fill: rgb(105, 191, 191);"></rect><rect transform="translate(0,30)" class="bar" x="544" width="25" y="102.08333333333334" height="61.25" style="fill: rgb(148, 105, 191);"></rect><rect transform="translate(0,30)" class="bar" x="572" width="25" y="122.5" height="40.83333333333334" style="fill: rgb(148, 105, 191);"></rect><rect transform="translate(0,30)" class="bar" x="600" width="25" y="153.125" height="10.208333333333343" style="fill: rgb(148, 105, 191);"></rect><rect transform="translate(0,30)" class="bar" x="628" width="25" y="142.91666666666669" height="20.416666666666657" style="fill: rgb(148, 105, 191);"></rect><rect transform="translate(0,30)" class="bar" x="656" width="25" y="163.33333333333334" height="0" style="fill: rgb(148, 105, 191);"></rect><rect transform="translate(0,30)" class="bar" x="684" width="25" y="163.33333333333334" height="0" style="fill: rgb(148, 105, 191);"></rect><rect transform="translate(0,30)" class="bar" x="712" width="25" y="153.125" height="10.208333333333343" style="fill: rgb(148, 105, 191);"></rect></g><g transform="translate(50,193.33333333333334)"><text x="-50" y="23" style="font-size: 10px; font-family: Arial, Helvetica;">English</text><g class="y axis" transform="translate(0,30)" style="font-size: 10px; font-family: Arial, Helvetica;"><g class="tick" transform="translate(0,163.33333333333334)" style="opacity: 1;"><line x2="-6" y2="0" style="shape-rendering: crispEdges; fill: none; stroke: rgb(204, 204, 204);"></line><text dy=".32em" x="-9" y="0" style="text-anchor: end;">0.00</text></g><g class="tick" transform="translate(0,150.76923076923077)" style="opacity: 1;"><line x2="-6" y2="0" style="shape-rendering: crispEdges; fill: none; stroke: rgb(204, 204, 204);"></line><text dy=".32em" x="-9" y="0" style="text-anchor: end;">0.01</text></g><g class="tick" transform="translate(0,138.2051282051282)" style="opacity: 1;"><line x2="-6" y2="0" style="shape-rendering: crispEdges; fill: none; stroke: rgb(204, 204, 204);"></line><text dy=".32em" x="-9" y="0" style="text-anchor: end;">0.02</text></g><g class="tick" transform="translate(0,125.64102564102565)" style="opacity: 1;"><line x2="-6" y2="0" style="shape-rendering: crispEdges; fill: none; stroke: rgb(204, 204, 204);"></line><text dy=".32em" x="-9" y="0" style="text-anchor: end;">0.03</text></g><g class="tick" transform="translate(0,113.07692307692308)" style="opacity: 1;"><line x2="-6" y2="0" style="shape-rendering: crispEdges; fill: none; stroke: rgb(204, 204, 204);"></line><text dy=".32em" x="-9" y="0" style="text-anchor: end;">0.04</text></g><g class="tick" transform="translate(0,100.51282051282053)" style="opacity: 1;"><line x2="-6" y2="0" style="shape-rendering: crispEdges; fill: none; stroke: rgb(204, 204, 204);"></line><text dy=".32em" x="-9" y="0" style="text-anchor: end;">0.05</text></g><g class="tick" transform="translate(0,87.94871794871797)" style="opacity: 1;"><line x2="-6" y2="0" style="shape-rendering: crispEdges; fill: none; stroke: rgb(204, 204, 204);"></line><text dy=".32em" x="-9" y="0" style="text-anchor: end;">0.06</text></g><g class="tick" transform="translate(0,75.38461538461537)" style="opacity: 1;"><line x2="-6" y2="0" style="shape-rendering: crispEdges; fill: none; stroke: rgb(204, 204, 204);"></line><text dy=".32em" x="-9" y="0" style="text-anchor: end;">0.07</text></g><g class="tick" transform="translate(0,62.82051282051282)" style="opacity: 1;"><line x2="-6" y2="0" style="shape-rendering: crispEdges; fill: none; stroke: rgb(204, 204, 204);"></line><text dy=".32em" x="-9" y="0" style="text-anchor: end;">0.08</text></g><g class="tick" transform="translate(0,50.25641025641026)" style="opacity: 1;"><line x2="-6" y2="0" style="shape-rendering: crispEdges; fill: none; stroke: rgb(204, 204, 204);"></line><text dy=".32em" x="-9" y="0" style="text-anchor: end;">0.09</text></g><g class="tick" transform="translate(0,37.692307692307686)" style="opacity: 1;"><line x2="-6" y2="0" style="shape-rendering: crispEdges; fill: none; stroke: rgb(204, 204, 204);"></line><text dy=".32em" x="-9" y="0" style="text-anchor: end;">0.10</text></g><g class="tick" transform="translate(0,25.12820512820513)" style="opacity: 1;"><line x2="-6" y2="0" style="shape-rendering: crispEdges; fill: none; stroke: rgb(204, 204, 204);"></line><text dy=".32em" x="-9" y="0" style="text-anchor: end;">0.11</text></g><g class="tick" transform="translate(0,12.564102564102575)" style="opacity: 1;"><line x2="-6" y2="0" style="shape-rendering: crispEdges; fill: none; stroke: rgb(204, 204, 204);"></line><text dy=".32em" x="-9" y="0" style="text-anchor: end;">0.12</text></g><g class="tick" transform="translate(0,0)" style="opacity: 1;"><line x2="-6" y2="0" style="shape-rendering: crispEdges; fill: none; stroke: rgb(204, 204, 204);"></line><text dy=".32em" x="-9" y="0" style="text-anchor: end;">0.13</text></g><path class="domain" d="M-6,0H0V163.33333333333334H-6" style="shape-rendering: crispEdges; fill: none; stroke: rgb(204, 204, 204);"></path></g><rect transform="translate(0,30)" class="bar" x="12" width="25" y="62.82051282051282" height="100.51282051282053" style="fill: rgb(105, 191, 191);"></rect><rect transform="translate(0,30)" class="bar" x="40" width="25" y="150.76923076923077" height="12.56410256410257" style="fill: rgb(148, 105, 191);"></rect><rect transform="translate(0,30)" class="bar" x="68" width="25" y="125.64102564102565" height="37.69230769230769" style="fill: rgb(148, 105, 191);"></rect><rect transform="translate(0,30)" class="bar" x="96" width="25" y="113.07692307692308" height="50.25641025641026" style="fill: rgb(148, 105, 191);"></rect><rect transform="translate(0,30)" class="bar" x="124" width="25" y="0" height="163.33333333333334" style="fill: rgb(191, 105, 105);"></rect><rect transform="translate(0,30)" class="bar" x="152" width="25" y="138.2051282051282" height="25.12820512820514" style="fill: rgb(148, 105, 191);"></rect><rect transform="translate(0,30)" class="bar" x="180" width="25" y="138.2051282051282" height="25.12820512820514" style="fill: rgb(148, 105, 191);"></rect><rect transform="translate(0,30)" class="bar" x="208" width="25" y="87.94871794871797" height="75.38461538461537" style="fill: rgb(148, 105, 191);"></rect><rect transform="translate(0,30)" class="bar" x="236" width="25" y="75.38461538461537" height="87.94871794871797" style="fill: rgb(148, 105, 191);"></rect><rect transform="translate(0,30)" class="bar" x="264" width="25" y="163.33333333333334" height="0" style="fill: rgb(148, 105, 191);"></rect><rect transform="translate(0,30)" class="bar" x="292" width="25" y="150.76923076923077" height="12.56410256410257" style="fill: rgb(148, 105, 191);"></rect><rect transform="translate(0,30)" class="bar" x="320" width="25" y="113.07692307692308" height="50.25641025641026" style="fill: rgb(148, 105, 191);"></rect><rect transform="translate(0,30)" class="bar" x="348" width="25" y="138.2051282051282" height="25.12820512820514" style="fill: rgb(148, 105, 191);"></rect><rect transform="translate(0,30)" class="bar" x="376" width="25" y="75.38461538461537" height="87.94871794871797" style="fill: rgb(148, 105, 191);"></rect><rect transform="translate(0,30)" class="bar" x="404" width="25" y="62.82051282051282" height="100.51282051282053" style="fill: rgb(148, 105, 191);"></rect><rect transform="translate(0,30)" class="bar" x="432" width="25" y="138.2051282051282" height="25.12820512820514" style="fill: rgb(148, 105, 191);"></rect><rect transform="translate(0,30)" class="bar" x="460" width="25" y="163.33333333333334" height="0" style="fill: rgb(148, 105, 191);"></rect><rect transform="translate(0,30)" class="bar" x="488" width="25" y="87.94871794871797" height="75.38461538461537" style="fill: rgb(148, 105, 191);"></rect><rect transform="translate(0,30)" class="bar" x="516" width="25" y="87.94871794871797" height="75.38461538461537" style="fill: rgb(148, 105, 191);"></rect><rect transform="translate(0,30)" class="bar" x="544" width="25" y="50.25641025641026" height="113.07692307692308" style="fill: rgb(148, 191, 105);"></rect><rect transform="translate(0,30)" class="bar" x="572" width="25" y="125.64102564102565" height="37.69230769230769" style="fill: rgb(148, 105, 191);"></rect><rect transform="translate(0,30)" class="bar" x="600" width="25" y="150.76923076923077" height="12.56410256410257" style="fill: rgb(148, 105, 191);"></rect><rect transform="translate(0,30)" class="bar" x="628" width="25" y="138.2051282051282" height="25.12820512820514" style="fill: rgb(148, 105, 191);"></rect><rect transform="translate(0,30)" class="bar" x="656" width="25" y="163.33333333333334" height="0" style="fill: rgb(148, 105, 191);"></rect><rect transform="translate(0,30)" class="bar" x="684" width="25" y="138.2051282051282" height="25.12820512820514" style="fill: rgb(148, 105, 191);"></rect><rect transform="translate(0,30)" class="bar" x="712" width="25" y="163.33333333333334" height="0" style="fill: rgb(148, 105, 191);"></rect></g><g transform="translate(50,386.6666666666667)"><text x="-50" y="23" style="font-size: 10px; font-family: Arial, Helvetica;">Italian</text><g class="y axis" transform="translate(0,30)" style="font-size: 10px; font-family: Arial, Helvetica;"><g class="tick" transform="translate(0,163.33333333333334)" style="opacity: 1;"><line x2="-6" y2="0" style="shape-rendering: crispEdges; fill: none; stroke: rgb(204, 204, 204);"></line><text dy=".32em" x="-9" y="0" style="text-anchor: end;">0.00</text></g><g class="tick" transform="translate(0,149.72222222222223)" style="opacity: 1;"><line x2="-6" y2="0" style="shape-rendering: crispEdges; fill: none; stroke: rgb(204, 204, 204);"></line><text dy=".32em" x="-9" y="0" style="text-anchor: end;">0.01</text></g><g class="tick" transform="translate(0,136.11111111111111)" style="opacity: 1;"><line x2="-6" y2="0" style="shape-rendering: crispEdges; fill: none; stroke: rgb(204, 204, 204);"></line><text dy=".32em" x="-9" y="0" style="text-anchor: end;">0.02</text></g><g class="tick" transform="translate(0,122.5)" style="opacity: 1;"><line x2="-6" y2="0" style="shape-rendering: crispEdges; fill: none; stroke: rgb(204, 204, 204);"></line><text dy=".32em" x="-9" y="0" style="text-anchor: end;">0.03</text></g><g class="tick" transform="translate(0,108.88888888888889)" style="opacity: 1;"><line x2="-6" y2="0" style="shape-rendering: crispEdges; fill: none; stroke: rgb(204, 204, 204);"></line><text dy=".32em" x="-9" y="0" style="text-anchor: end;">0.04</text></g><g class="tick" transform="translate(0,95.27777777777777)" style="opacity: 1;"><line x2="-6" y2="0" style="shape-rendering: crispEdges; fill: none; stroke: rgb(204, 204, 204);"></line><text dy=".32em" x="-9" y="0" style="text-anchor: end;">0.05</text></g><g class="tick" transform="translate(0,81.66666666666667)" style="opacity: 1;"><line x2="-6" y2="0" style="shape-rendering: crispEdges; fill: none; stroke: rgb(204, 204, 204);"></line><text dy=".32em" x="-9" y="0" style="text-anchor: end;">0.06</text></g><g class="tick" transform="translate(0,68.05555555555556)" style="opacity: 1;"><line x2="-6" y2="0" style="shape-rendering: crispEdges; fill: none; stroke: rgb(204, 204, 204);"></line><text dy=".32em" x="-9" y="0" style="text-anchor: end;">0.07</text></g><g class="tick" transform="translate(0,54.444444444444436)" style="opacity: 1;"><line x2="-6" y2="0" style="shape-rendering: crispEdges; fill: none; stroke: rgb(204, 204, 204);"></line><text dy=".32em" x="-9" y="0" style="text-anchor: end;">0.08</text></g><g class="tick" transform="translate(0,40.833333333333336)" style="opacity: 1;"><line x2="-6" y2="0" style="shape-rendering: crispEdges; fill: none; stroke: rgb(204, 204, 204);"></line><text dy=".32em" x="-9" y="0" style="text-anchor: end;">0.09</text></g><g class="tick" transform="translate(0,27.222222222222218)" style="opacity: 1;"><line x2="-6" y2="0" style="shape-rendering: crispEdges; fill: none; stroke: rgb(204, 204, 204);"></line><text dy=".32em" x="-9" y="0" style="text-anchor: end;">0.10</text></g><g class="tick" transform="translate(0,13.6111111111111)" style="opacity: 1;"><line x2="-6" y2="0" style="shape-rendering: crispEdges; fill: none; stroke: rgb(204, 204, 204);"></line><text dy=".32em" x="-9" y="0" style="text-anchor: end;">0.11</text></g><g class="tick" transform="translate(0,0)" style="opacity: 1;"><line x2="-6" y2="0" style="shape-rendering: crispEdges; fill: none; stroke: rgb(204, 204, 204);"></line><text dy=".32em" x="-9" y="0" style="text-anchor: end;">0.12</text></g><path class="domain" d="M-6,0H0V163.33333333333334H-6" style="shape-rendering: crispEdges; fill: none; stroke: rgb(204, 204, 204);"></path></g><rect transform="translate(0,30)" class="bar" x="12" width="25" y="0" height="163.33333333333334" style="fill: rgb(148, 191, 105);"></rect><rect transform="translate(0,30)" class="bar" x="40" width="25" y="149.72222222222223" height="13.611111111111114" style="fill: rgb(148, 105, 191);"></rect><rect transform="translate(0,30)" class="bar" x="68" width="25" y="95.27777777777777" height="68.05555555555557" style="fill: rgb(148, 105, 191);"></rect><rect transform="translate(0,30)" class="bar" x="96" width="25" y="108.88888888888889" height="54.44444444444446" style="fill: rgb(148, 105, 191);"></rect><rect transform="translate(0,30)" class="bar" x="124" width="25" y="0" height="163.33333333333334" style="fill: rgb(191, 105, 105);"></rect><rect transform="translate(0,30)" class="bar" x="152" width="25" y="149.72222222222223" height="13.611111111111114" style="fill: rgb(148, 105, 191);"></rect><rect transform="translate(0,30)" class="bar" x="180" width="25" y="136.11111111111111" height="27.22222222222223" style="fill: rgb(148, 105, 191);"></rect><rect transform="translate(0,30)" class="bar" x="208" width="25" y="149.72222222222223" height="13.611111111111114" style="fill: rgb(148, 105, 191);"></rect><rect transform="translate(0,30)" class="bar" x="236" width="25" y="27.222222222222218" height="136.11111111111111" style="fill: rgb(105, 191, 191);"></rect><rect transform="translate(0,30)" class="bar" x="264" width="25" y="163.33333333333334" height="0" style="fill: rgb(148, 105, 191);"></rect><rect transform="translate(0,30)" class="bar" x="292" width="25" y="163.33333333333334" height="0" style="fill: rgb(148, 105, 191);"></rect><rect transform="translate(0,30)" class="bar" x="320" width="25" y="68.05555555555556" height="95.27777777777779" style="fill: rgb(148, 105, 191);"></rect><rect transform="translate(0,30)" class="bar" x="348" width="25" y="122.5" height="40.83333333333334" style="fill: rgb(148, 105, 191);"></rect><rect transform="translate(0,30)" class="bar" x="376" width="25" y="68.05555555555556" height="95.27777777777779" style="fill: rgb(148, 105, 191);"></rect><rect transform="translate(0,30)" class="bar" x="404" width="25" y="27.222222222222218" height="136.11111111111111" style="fill: rgb(148, 105, 191);"></rect><rect transform="translate(0,30)" class="bar" x="432" width="25" y="122.5" height="40.83333333333334" style="fill: rgb(148, 105, 191);"></rect><rect transform="translate(0,30)" class="bar" x="460" width="25" y="149.72222222222223" height="13.611111111111114" style="fill: rgb(148, 105, 191);"></rect><rect transform="translate(0,30)" class="bar" x="488" width="25" y="81.66666666666667" height="81.66666666666667" style="fill: rgb(148, 105, 191);"></rect><rect transform="translate(0,30)" class="bar" x="516" width="25" y="95.27777777777777" height="68.05555555555557" style="fill: rgb(148, 105, 191);"></rect><rect transform="translate(0,30)" class="bar" x="544" width="25" y="81.66666666666667" height="81.66666666666667" style="fill: rgb(148, 105, 191);"></rect><rect transform="translate(0,30)" class="bar" x="572" width="25" y="122.5" height="40.83333333333334" style="fill: rgb(148, 105, 191);"></rect><rect transform="translate(0,30)" class="bar" x="600" width="25" y="136.11111111111111" height="27.22222222222223" style="fill: rgb(148, 105, 191);"></rect><rect transform="translate(0,30)" class="bar" x="628" width="25" y="163.33333333333334" height="0" style="fill: rgb(148, 105, 191);"></rect><rect transform="translate(0,30)" class="bar" x="656" width="25" y="163.33333333333334" height="0" style="fill: rgb(148, 105, 191);"></rect><rect transform="translate(0,30)" class="bar" x="684" width="25" y="163.33333333333334" height="0" style="fill: rgb(148, 105, 191);"></rect><rect transform="translate(0,30)" class="bar" x="712" width="25" y="149.72222222222223" height="13.611111111111114" style="fill: rgb(148, 105, 191);"></rect></g><g class="x axis" transform="translate(50,580)" style="font-size: 10px; font-family: Arial, Helvetica;"><g class="tick" transform="translate(24.5,0)" style="opacity: 1;"><line y2="6" x2="0" style="shape-rendering: crispEdges; fill: none; stroke: rgb(204, 204, 204);"></line><text dy=".71em" y="9" x="0" style="text-anchor: middle;">a</text></g><g class="tick" transform="translate(52.5,0)" style="opacity: 1;"><line y2="6" x2="0" style="shape-rendering: crispEdges; fill: none; stroke: rgb(204, 204, 204);"></line><text dy=".71em" y="9" x="0" style="text-anchor: middle;">b</text></g><g class="tick" transform="translate(80.5,0)" style="opacity: 1;"><line y2="6" x2="0" style="shape-rendering: crispEdges; fill: none; stroke: rgb(204, 204, 204);"></line><text dy=".71em" y="9" x="0" style="text-anchor: middle;">c</text></g><g class="tick" transform="translate(108.5,0)" style="opacity: 1;"><line y2="6" x2="0" style="shape-rendering: crispEdges; fill: none; stroke: rgb(204, 204, 204);"></line><text dy=".71em" y="9" x="0" style="text-anchor: middle;">d</text></g><g class="tick" transform="translate(136.5,0)" style="opacity: 1;"><line y2="6" x2="0" style="shape-rendering: crispEdges; fill: none; stroke: rgb(204, 204, 204);"></line><text dy=".71em" y="9" x="0" style="text-anchor: middle;">e</text></g><g class="tick" transform="translate(164.5,0)" style="opacity: 1;"><line y2="6" x2="0" style="shape-rendering: crispEdges; fill: none; stroke: rgb(204, 204, 204);"></line><text dy=".71em" y="9" x="0" style="text-anchor: middle;">f</text></g><g class="tick" transform="translate(192.5,0)" style="opacity: 1;"><line y2="6" x2="0" style="shape-rendering: crispEdges; fill: none; stroke: rgb(204, 204, 204);"></line><text dy=".71em" y="9" x="0" style="text-anchor: middle;">g</text></g><g class="tick" transform="translate(220.5,0)" style="opacity: 1;"><line y2="6" x2="0" style="shape-rendering: crispEdges; fill: none; stroke: rgb(204, 204, 204);"></line><text dy=".71em" y="9" x="0" style="text-anchor: middle;">h</text></g><g class="tick" transform="translate(248.5,0)" style="opacity: 1;"><line y2="6" x2="0" style="shape-rendering: crispEdges; fill: none; stroke: rgb(204, 204, 204);"></line><text dy=".71em" y="9" x="0" style="text-anchor: middle;">i</text></g><g class="tick" transform="translate(276.5,0)" style="opacity: 1;"><line y2="6" x2="0" style="shape-rendering: crispEdges; fill: none; stroke: rgb(204, 204, 204);"></line><text dy=".71em" y="9" x="0" style="text-anchor: middle;">j</text></g><g class="tick" transform="translate(304.5,0)" style="opacity: 1;"><line y2="6" x2="0" style="shape-rendering: crispEdges; fill: none; stroke: rgb(204, 204, 204);"></line><text dy=".71em" y="9" x="0" style="text-anchor: middle;">k</text></g><g class="tick" transform="translate(332.5,0)" style="opacity: 1;"><line y2="6" x2="0" style="shape-rendering: crispEdges; fill: none; stroke: rgb(204, 204, 204);"></line><text dy=".71em" y="9" x="0" style="text-anchor: middle;">l</text></g><g class="tick" transform="translate(360.5,0)" style="opacity: 1;"><line y2="6" x2="0" style="shape-rendering: crispEdges; fill: none; stroke: rgb(204, 204, 204);"></line><text dy=".71em" y="9" x="0" style="text-anchor: middle;">m</text></g><g class="tick" transform="translate(388.5,0)" style="opacity: 1;"><line y2="6" x2="0" style="shape-rendering: crispEdges; fill: none; stroke: rgb(204, 204, 204);"></line><text dy=".71em" y="9" x="0" style="text-anchor: middle;">n</text></g><g class="tick" transform="translate(416.5,0)" style="opacity: 1;"><line y2="6" x2="0" style="shape-rendering: crispEdges; fill: none; stroke: rgb(204, 204, 204);"></line><text dy=".71em" y="9" x="0" style="text-anchor: middle;">o</text></g><g class="tick" transform="translate(444.5,0)" style="opacity: 1;"><line y2="6" x2="0" style="shape-rendering: crispEdges; fill: none; stroke: rgb(204, 204, 204);"></line><text dy=".71em" y="9" x="0" style="text-anchor: middle;">p</text></g><g class="tick" transform="translate(472.5,0)" style="opacity: 1;"><line y2="6" x2="0" style="shape-rendering: crispEdges; fill: none; stroke: rgb(204, 204, 204);"></line><text dy=".71em" y="9" x="0" style="text-anchor: middle;">q</text></g><g class="tick" transform="translate(500.5,0)" style="opacity: 1;"><line y2="6" x2="0" style="shape-rendering: crispEdges; fill: none; stroke: rgb(204, 204, 204);"></line><text dy=".71em" y="9" x="0" style="text-anchor: middle;">r</text></g><g class="tick" transform="translate(528.5,0)" style="opacity: 1;"><line y2="6" x2="0" style="shape-rendering: crispEdges; fill: none; stroke: rgb(204, 204, 204);"></line><text dy=".71em" y="9" x="0" style="text-anchor: middle;">s</text></g><g class="tick" transform="translate(556.5,0)" style="opacity: 1;"><line y2="6" x2="0" style="shape-rendering: crispEdges; fill: none; stroke: rgb(204, 204, 204);"></line><text dy=".71em" y="9" x="0" style="text-anchor: middle;">t</text></g><g class="tick" transform="translate(584.5,0)" style="opacity: 1;"><line y2="6" x2="0" style="shape-rendering: crispEdges; fill: none; stroke: rgb(204, 204, 204);"></line><text dy=".71em" y="9" x="0" style="text-anchor: middle;">u</text></g><g class="tick" transform="translate(612.5,0)" style="opacity: 1;"><line y2="6" x2="0" style="shape-rendering: crispEdges; fill: none; stroke: rgb(204, 204, 204);"></line><text dy=".71em" y="9" x="0" style="text-anchor: middle;">v</text></g><g class="tick" transform="translate(640.5,0)" style="opacity: 1;"><line y2="6" x2="0" style="shape-rendering: crispEdges; fill: none; stroke: rgb(204, 204, 204);"></line><text dy=".71em" y="9" x="0" style="text-anchor: middle;">w</text></g><g class="tick" transform="translate(668.5,0)" style="opacity: 1;"><line y2="6" x2="0" style="shape-rendering: crispEdges; fill: none; stroke: rgb(204, 204, 204);"></line><text dy=".71em" y="9" x="0" style="text-anchor: middle;">x</text></g><g class="tick" transform="translate(696.5,0)" style="opacity: 1;"><line y2="6" x2="0" style="shape-rendering: crispEdges; fill: none; stroke: rgb(204, 204, 204);"></line><text dy=".71em" y="9" x="0" style="text-anchor: middle;">y</text></g><g class="tick" transform="translate(724.5,0)" style="opacity: 1;"><line y2="6" x2="0" style="shape-rendering: crispEdges; fill: none; stroke: rgb(204, 204, 204);"></line><text dy=".71em" y="9" x="0" style="text-anchor: middle;">z</text></g><path class="domain" d="M0,6V0H750V6" style="shape-rendering: crispEdges; fill: none; stroke: rgb(204, 204, 204);"></path></g></svg>