<svg width="800" height="1800" xmlns="http://www.w3.org/2000/svg" version="1.1"><g transform="translate(100,100)"><g class="arc"><path d="M-93.27942732997865,-28.376018695215727A97.5,97.5 0 0,1 -7.34436003204014,-97.22299304032853L0,0Z" style="fill: rgb(191, 105, 105);"></path></g><g class="arc"><path d="M-7.34436003204014,-97.22299304032853A97.5,97.5 0 0,1 -1.791045943753004e-14,-97.5L0,0Z" style="fill: rgb(105, 191, 105);"></path></g><g class="arc"><path d="M5.970153145843347e-15,-97.5A97.5,97.5 0 1,1 -93.27942732997865,-28.376018695215727L0,0Z" style="fill: rgb(105, 105, 191);"></path></g><text y="107.5" style="text-anchor: middle; font-size: 11px; font-family: Arial, Helvetica;">United States</text></g><g transform="translate(300,100)"><g class="arc"><path d="M8.02422855004749,74.83734507928308A75.26630363143319,75.26630363143319 0 0,1 -40.7282090686417,-63.29478215777431L0,0Z" style="fill: rgb(191, 105, 105);"></path></g><g class="arc"><path d="M-40.7282090686417,-63.29478215777431A75.26630363143319,75.26630363143319 0 0,1 -1.3826195673883119e-14,-75.26630363143319L0,0Z" style="fill: rgb(105, 191, 105);"></path></g><g class="arc"><path d="M4.608731891294373e-15,-75.26630363143319A75.26630363143319,75.26630363143319 0 0,1 8.02422855004749,74.83734507928308L0,0Z" style="fill: rgb(105, 105, 191);"></path></g><text y="85.26630363143319" style="text-anchor: middle; font-size: 11px; font-family: Arial, Helvetica;">China</text></g><g transform="translate(500,100)"><g class="arc"><path d="M-48.887848658978285,11.481647134332567A50.218024328128365,50.218024328128365 0 0,1 -3.778990432890734,-50.07563478108503L0,0Z" style="fill: rgb(191, 105, 105);"></path></g><g class="arc"><path d="M-3.778990432890734,-50.07563478108503A50.218024328128365,50.218024328128365 0 0,1 -9.224901412941947e-15,-50.218024328128365L0,0Z" style="fill: rgb(105, 191, 105);"></path></g><g class="arc"><path d="M3.074967137647316e-15,-50.218024328128365A50.218024328128365,50.218024328128365 0 1,1 -48.887848658978285,11.481647134332567L0,0Z" style="fill: rgb(105, 105, 191);"></path></g><text y="60.218024328128365" style="text-anchor: middle; font-size: 11px; font-family: Arial, Helvetica;">Japan</text></g><g transform="translate(700,100)"><g class="arc"><path d="M-44.523626806927815,11.134001947114365A45.894654845645455,45.894654845645455 0 0,1 -2.305917583596764,-45.83668931651355L0,0Z" style="fill: rgb(191, 105, 105);"></path></g><g class="arc"><path d="M-2.305917583596764,-45.83668931651355A45.894654845645455,45.894654845645455 0 0,1 3.2331930690284234e-14,-45.894654845645455L0,0Z" style="fill: rgb(105, 191, 105);"></path></g><g class="arc"><path d="M2.8102371077346134e-15,-45.894654845645455A45.894654845645455,45.894654845645455 0 1,1 -44.523626806927815,11.134001947114365L0,0Z" style="fill: rgb(105, 105, 191);"></path></g><text y="55.894654845645455" style="text-anchor: middle; font-size: 11px; font-family: Arial, Helvetica;">Germany</text></g><g transform="translate(100,300)"><g class="arc"><path d="M-39.23233477297348,-8.253220096711622A40.09104306080635,40.09104306080635 0 0,1 -1.7627258449355188,-40.052272486077804L0,0Z" style="fill: rgb(191, 105, 105);"></path></g><g class="arc"><path d="M-1.7627258449355188,-40.052272486077804A40.09104306080635,40.09104306080635 0 0,1 -7.36460513383428e-15,-40.09104306080635L0,0Z" style="fill: rgb(105, 191, 105);"></path></g><g class="arc"><path d="M2.45486837794476e-15,-40.09104306080635A40.09104306080635,40.09104306080635 0 1,1 -39.23233477297348,-8.253220096711622L0,0Z" style="fill: rgb(105, 105, 191);"></path></g><text y="50.09104306080635" style="text-anchor: middle; font-size: 11px; font-family: Arial, Helvetica;">United Kingdom</text></g><g transform="translate(300,300)"><g class="arc"><path d="M-37.63752888856546,-11.708335446964677A39.41660436638662,39.41660436638662 0 0,1 -4.694415055459495,-39.1360596772762L0,0Z" style="fill: rgb(191, 105, 105);"></path></g><g class="arc"><path d="M-4.694415055459495,-39.1360596772762A39.41660436638662,39.41660436638662 0 0,1 2.776826462049938e-14,-39.41660436638662L0,0Z" style="fill: rgb(105, 191, 105);"></path></g><g class="arc"><path d="M2.413570918527648e-15,-39.41660436638662A39.41660436638662,39.41660436638662 0 1,1 -37.63752888856546,-11.708335446964677L0,0Z" style="fill: rgb(105, 105, 191);"></path></g><text y="49.41660436638662" style="text-anchor: middle; font-size: 11px; font-family: Arial, Helvetica;">France</text></g><g transform="translate(500,300)"><g class="arc"><path d="M-31.616900764433016,16.86765087203551A35.834983743388044,35.834983743388044 0 0,1 -11.926551385727755,-33.7920616703462L0,0Z" style="fill: rgb(191, 105, 105);"></path></g><g class="arc"><path d="M-11.926551385727755,-33.7920616703462A35.834983743388044,35.834983743388044 0 0,1 2.524507951035643e-14,-35.834983743388044L0,0Z" style="fill: rgb(105, 191, 105);"></path></g><g class="arc"><path d="M2.1942599069418804e-15,-35.834983743388044A35.834983743388044,35.834983743388044 0 1,1 -31.616900764433016,16.86765087203551L0,0Z" style="fill: rgb(105, 105, 191);"></path></g><text y="45.834983743388044" style="text-anchor: middle; font-size: 11px; font-family: Arial, Helvetica;">Brazil</text></g><g transform="translate(700,300)"><g class="arc"><path d="M-34.14055978445821,2.578983993617323A34.23782967472529,34.23782967472529 0 0,1 -4.291133928848967,-33.967854663492965L0,0Z" style="fill: rgb(191, 105, 105);"></path></g><g class="arc"><path d="M-4.291133928848967,-33.967854663492965A34.23782967472529,34.23782967472529 0 0,1 -6.289387278135688e-15,-34.23782967472529L0,0Z" style="fill: rgb(105, 191, 105);"></path></g><g class="arc"><path d="M2.0964624260452298e-15,-34.23782967472529A34.23782967472529,34.23782967472529 0 1,1 -34.14055978445821,2.578983993617323L0,0Z" style="fill: rgb(105, 105, 191);"></path></g><text y="44.23782967472529" style="text-anchor: middle; font-size: 11px; font-family: Arial, Helvetica;">Italy</text></g><g transform="translate(100,500)"><g class="arc"><path d="M-13.942068854197853,30.402526523668474A33.44689676124766,33.44689676124766 0 0,1 -29.688603174475862,-15.403952236554776L0,0Z" style="fill: rgb(191, 105, 105);"></path></g><g class="arc"><path d="M-29.688603174475862,-15.403952236554776A33.44689676124766,33.44689676124766 0 0,1 -6.144095259011087e-15,-33.44689676124766L0,0Z" style="fill: rgb(105, 191, 105);"></path></g><g class="arc"><path d="M2.048031753003696e-15,-33.44689676124766A33.44689676124766,33.44689676124766 0 1,1 -13.942068854197853,30.402526523668474L0,0Z" style="fill: rgb(105, 105, 191);"></path></g><text y="43.44689676124766" style="text-anchor: middle; font-size: 11px; font-family: Arial, Helvetica;">India</text></g><g transform="translate(300,500)"><g class="arc"><path d="M-18.875718485921425,25.639869523167118A31.83858755543012,31.83858755543012 0 0,1 -7.724019044686071,-30.887460033517108L0,0Z" style="fill: rgb(191, 105, 105);"></path></g><g class="arc"><path d="M-7.724019044686071,-30.887460033517108A31.83858755543012,31.83858755543012 0 0,1 -5.848653650869537e-15,-31.83858755543012L0,0Z" style="fill: rgb(105, 191, 105);"></path></g><g class="arc"><path d="M1.9495512169565124e-15,-31.83858755543012A31.83858755543012,31.83858755543012 0 1,1 -18.875718485921425,25.639869523167118L0,0Z" style="fill: rgb(105, 105, 191);"></path></g><text y="41.838587555430124" style="text-anchor: middle; font-size: 11px; font-family: Arial, Helvetica;">Russia</text></g><g transform="translate(500,500)"><g class="arc"><path d="M-29.462668220169927,10.398572367613301A31.24386541285028,31.24386541285028 0 0,1 -3.526079950522502,-31.044256894292467L0,0Z" style="fill: rgb(191, 105, 105);"></path></g><g class="arc"><path d="M-3.526079950522502,-31.044256894292467A31.24386541285028,31.24386541285028 0 0,1 2.2010722042083093e-14,-31.24386541285028L0,0Z" style="fill: rgb(105, 191, 105);"></path></g><g class="arc"><path d="M1.9131349885418895e-15,-31.24386541285028A31.24386541285028,31.24386541285028 0 1,1 -29.462668220169927,10.398572367613301L0,0Z" style="fill: rgb(105, 105, 191);"></path></g><text y="41.24386541285028" style="text-anchor: middle; font-size: 11px; font-family: Arial, Helvetica;">Canada</text></g><g transform="translate(700,500)"><g class="arc"><path d="M-26.35410817941222,9.675561483135573A28.07410742919708,28.07410742919708 0 0,1 -6.981798662481785,-27.19209435447491L0,0Z" style="fill: rgb(191, 105, 105);"></path></g><g class="arc"><path d="M-6.981798662481785,-27.19209435447491A28.07410742919708,28.07410742919708 0 0,1 -5.1571298703127694e-15,-28.07410742919708L0,0Z" style="fill: rgb(105, 191, 105);"></path></g><g class="arc"><path d="M1.7190432901042567e-15,-28.07410742919708A28.07410742919708,28.07410742919708 0 1,1 -26.35410817941222,9.675561483135573L0,0Z" style="fill: rgb(105, 105, 191);"></path></g><text y="38.074107429197085" style="text-anchor: middle; font-size: 11px; font-family: Arial, Helvetica;">Australia</text></g><g transform="translate(100,700)"><g class="arc"><path d="M-12.624582473000098,24.77720609225569A27.80809278529712,27.80809278529712 0 0,1 -4.6949786345981135,-27.4088890686281L0,0Z" style="fill: rgb(191, 105, 105);"></path></g><g class="arc"><path d="M-4.6949786345981135,-27.4088890686281A27.80809278529712,27.80809278529712 0 0,1 1.959028413193364e-14,-27.80809278529712L0,0Z" style="fill: rgb(105, 191, 105);"></path></g><g class="arc"><path d="M1.7027545909953362e-15,-27.80809278529712A27.80809278529712,27.80809278529712 0 1,1 -12.624582473000098,24.77720609225569L0,0Z" style="fill: rgb(105, 105, 191);"></path></g><text y="37.80809278529712" style="text-anchor: middle; font-size: 11px; font-family: Arial, Helvetica;">South Korea</text></g><g transform="translate(300,700)"><g class="arc"><path d="M-27.388845073350243,4.289496229743127A27.722709325694744,27.722709325694744 0 0,1 -5.7014231098488795,-27.130101121806447L0,0Z" style="fill: rgb(191, 105, 105);"></path></g><g class="arc"><path d="M-5.7014231098488795,-27.130101121806447A27.722709325694744,27.722709325694744 0 0,1 -5.092579085910681e-15,-27.722709325694744L0,0Z" style="fill: rgb(105, 191, 105);"></path></g><g class="arc"><path d="M1.6975263619702273e-15,-27.722709325694744A27.722709325694744,27.722709325694744 0 1,1 -27.388845073350243,4.289496229743127L0,0Z" style="fill: rgb(105, 105, 191);"></path></g><text y="37.722709325694744" style="text-anchor: middle; font-size: 11px; font-family: Arial, Helvetica;">Spain</text></g><g transform="translate(500,700)"><g class="arc"><path d="M-18.232707703171098,19.17305633440152A26.458225930538294,26.458225930538294 0 0,1 -6.0957175729915,-25.74645503096944L0,0Z" style="fill: rgb(191, 105, 105);"></path></g><g class="arc"><path d="M-6.0957175729915,-25.74645503096944A26.458225930538294,26.458225930538294 0 0,1 -4.860297254542683e-15,-26.458225930538294L0,0Z" style="fill: rgb(105, 191, 105);"></path></g><g class="arc"><path d="M1.6200990848475611e-15,-26.458225930538294A26.458225930538294,26.458225930538294 0 1,1 -18.232707703171098,19.17305633440152L0,0Z" style="fill: rgb(105, 105, 191);"></path></g><text y="36.45822593053829" style="text-anchor: middle; font-size: 11px; font-family: Arial, Helvetica;">Mexico</text></g><g transform="translate(700,700)"><g class="arc"><path d="M1.3484650074652975e-15,-22.022104796324154A22.022104796324154,22.022104796324154 0 0,1 4.262353225549428,21.605680841874243L0,0Z" style="fill: rgb(191, 105, 105);"></path></g><g class="arc"><path d="M-17.22992500494123,-13.715056834894424A22.022104796324154,22.022104796324154 0 0,1 -4.045395022395892e-15,-22.022104796324154L0,0Z" style="fill: rgb(105, 191, 105);"></path></g><g class="arc"><path d="M4.262353225549428,21.605680841874243A22.022104796324154,22.022104796324154 0 0,1 -17.22992500494123,-13.715056834894424L0,0Z" style="fill: rgb(105, 105, 191);"></path></g><text y="32.02210479632416" style="text-anchor: middle; font-size: 11px; font-family: Arial, Helvetica;">Indonesia</text></g><g transform="translate(100,900)"><g class="arc"><path d="M-21.604482422957776,2.5544599719917085A21.754974753200692,21.754974753200692 0 0,1 -3.803872870881335,-21.419838414296514L0,0Z" style="fill: rgb(191, 105, 105);"></path></g><g class="arc"><path d="M-3.803872870881335,-21.419838414296514A21.754974753200692,21.754974753200692 0 0,1 -3.996324029555806e-15,-21.754974753200692L0,0Z" style="fill: rgb(105, 191, 105);"></path></g><g class="arc"><path d="M1.3321080098519354e-15,-21.754974753200692A21.754974753200692,21.754974753200692 0 1,1 -21.604482422957776,2.5544599719917085L0,0Z" style="fill: rgb(105, 105, 191);"></path></g><text y="31.754974753200692" style="text-anchor: middle; font-size: 11px; font-family: Arial, Helvetica;">Netherlands</text></g><g transform="translate(300,900)"><g class="arc"><path d="M-15.289710680271506,14.358002995381856A20.974448805673127,20.974448805673127 0 0,1 -11.127233445998295,-17.779543822608602L0,0Z" style="fill: rgb(191, 105, 105);"></path></g><g class="arc"><path d="M-11.127233445998295,-17.779543822608602A20.974448805673127,20.974448805673127 0 0,1 -2.248199653336608e-14,-20.974448805673127L0,0Z" style="fill: rgb(105, 191, 105);"></path></g><g class="arc"><path d="M1.284314579687381e-15,-20.974448805673127A20.974448805673127,20.974448805673127 0 1,1 -15.289710680271506,14.358002995381856L0,0Z" style="fill: rgb(105, 105, 191);"></path></g><text y="30.974448805673127" style="text-anchor: middle; font-size: 11px; font-family: Arial, Helvetica;">Turkey</text></g><g transform="translate(500,900)"><g class="arc"><path d="M1.2408412360641923e-15,-20.264475225479124A20.264475225479124,20.264475225479124 0 1,1 -17.69619952696867,9.873878592821109L0,0Z" style="fill: rgb(191, 105, 105);"></path></g><g class="arc"><path d="M-2.5397819884162507,-20.104687603028644A20.264475225479124,20.264475225479124 0 0,1 -3.7225237081925766e-15,-20.264475225479124L0,0Z" style="fill: rgb(105, 191, 105);"></path></g><g class="arc"><path d="M-17.69619952696867,9.873878592821109A20.264475225479124,20.264475225479124 0 0,1 -2.5397819884162507,-20.104687603028644L0,0Z" style="fill: rgb(105, 105, 191);"></path></g><text y="30.264475225479124" style="text-anchor: middle; font-size: 11px; font-family: Arial, Helvetica;">Saudi Arabia</text></g><g transform="translate(700,900)"><g class="arc"><path d="M-19.093528743816403,4.9024226606689005A19.712853366136095,19.712853366136095 0 0,1 -1.608442186761642,-19.647124511404424L0,0Z" style="fill: rgb(191, 105, 105);"></path></g><g class="arc"><path d="M-1.608442186761642,-19.647124511404424A19.712853366136095,19.712853366136095 0 0,1 -3.621192416534954e-15,-19.712853366136095L0,0Z" style="fill: rgb(105, 191, 105);"></path></g><g class="arc"><path d="M1.2070641388449847e-15,-19.712853366136095A19.712853366136095,19.712853366136095 0 1,1 -19.093528743816403,4.9024226606689005L0,0Z" style="fill: rgb(105, 105, 191);"></path></g><text y="29.712853366136095" style="text-anchor: middle; font-size: 11px; font-family: Arial, Helvetica;">Switzerland</text></g><g transform="translate(100,1100)"><g class="arc"><path d="M-6.099144765871747,16.42920379332577A17.524791130215803,17.524791130215803 0 0,1 -15.924101575055689,-7.317191618715432L0,0Z" style="fill: rgb(191, 105, 105);"></path></g><g class="arc"><path d="M-15.924101575055689,-7.317191618715432A17.524791130215803,17.524791130215803 0 0,1 -3.2192519045017062e-15,-17.524791130215803L0,0Z" style="fill: rgb(105, 191, 105);"></path></g><g class="arc"><path d="M1.0730839681672355e-15,-17.524791130215803A17.524791130215803,17.524791130215803 0 1,1 -6.099144765871747,16.42920379332577L0,0Z" style="fill: rgb(105, 105, 191);"></path></g><text y="27.524791130215803" style="text-anchor: middle; font-size: 11px; font-family: Arial, Helvetica;">Nigeria</text></g><g transform="translate(300,1100)"><g class="arc"><path d="M-16.998125923543643,4.024365298972254A17.46802223985928,17.46802223985928 0 0,1 -1.9713712092626285,-17.356425223170493L0,0Z" style="fill: rgb(191, 105, 105);"></path></g><g class="arc"><path d="M-1.9713712092626285,-17.356425223170493A17.46802223985928,17.46802223985928 0 0,1 -3.2088236285217666e-15,-17.46802223985928L0,0Z" style="fill: rgb(105, 191, 105);"></path></g><g class="arc"><path d="M1.0696078761739223e-15,-17.46802223985928A17.46802223985928,17.46802223985928 0 1,1 -16.998125923543643,4.024365298972254L0,0Z" style="fill: rgb(105, 105, 191);"></path></g><text y="27.46802223985928" style="text-anchor: middle; font-size: 11px; font-family: Arial, Helvetica;">Sweden</text></g><g transform="translate(500,1100)"><g class="arc"><path d="M-12.655031810127129,11.883838786831177A17.360168617462293,17.360168617462293 0 0,1 -3.6805139219587453,-16.96553187191579L0,0Z" style="fill: rgb(191, 105, 105);"></path></g><g class="arc"><path d="M-3.6805139219587453,-16.96553187191579A17.360168617462293,17.360168617462293 0 0,1 -3.189011239505029e-15,-17.360168617462293L0,0Z" style="fill: rgb(105, 191, 105);"></path></g><g class="arc"><path d="M1.0630037465016764e-15,-17.360168617462293A17.360168617462293,17.360168617462293 0 1,1 -12.655031810127129,11.883838786831177L0,0Z" style="fill: rgb(105, 105, 191);"></path></g><text y="27.360168617462293" style="text-anchor: middle; font-size: 11px; font-family: Arial, Helvetica;">Poland</text></g><g transform="translate(700,1100)"><g class="arc"><path d="M-16.728362100389752,-2.865365728495272A16.9719892564128,16.9719892564128 0 0,1 -0.7462930400708147,-16.95557330254962L0,0Z" style="fill: rgb(191, 105, 105);"></path></g><g class="arc"><path d="M-0.7462930400708147,-16.95557330254962A16.9719892564128,16.9719892564128 0 0,1 -3.1177038477043803e-15,-16.9719892564128L0,0Z" style="fill: rgb(105, 191, 105);"></path></g><g class="arc"><path d="M1.0392346159014602e-15,-16.9719892564128A16.9719892564128,16.9719892564128 0 1,1 -16.728362100389752,-2.865365728495272L0,0Z" style="fill: rgb(105, 105, 191);"></path></g><text y="26.9719892564128" style="text-anchor: middle; font-size: 11px; font-family: Arial, Helvetica;">Belgium</text></g><g transform="translate(100,1300)"><g class="arc"><path d="M-8.95329661488262,14.108206918104027A16.709369309405634,16.709369309405634 0 0,1 -2.8210490032970568,-16.46950834843298L0,0Z" style="fill: rgb(191, 105, 105);"></path></g><g class="arc"><path d="M-2.8210490032970568,-16.46950834843298A16.709369309405634,16.709369309405634 0 0,1 -3.069461346080194e-15,-16.709369309405634L0,0Z" style="fill: rgb(105, 191, 105);"></path></g><g class="arc"><path d="M1.0231537820267316e-15,-16.709369309405634A16.709369309405634,16.709369309405634 0 1,1 -8.95329661488262,14.108206918104027L0,0Z" style="fill: rgb(105, 105, 191);"></path></g><text y="26.709369309405634" style="text-anchor: middle; font-size: 11px; font-family: Arial, Helvetica;">Norway</text></g><g transform="translate(300,1300)"><g class="arc"><path d="M-14.449672120454046,8.222251938282117A16.625235376535603,16.625235376535603 0 0,1 -1.3537868510349684,-16.57002451679465L0,0Z" style="fill: rgb(191, 105, 105);"></path></g><g class="arc"><path d="M-1.3537868510349684,-16.57002451679465A16.625235376535603,16.625235376535603 0 0,1 -3.05400619334185e-15,-16.625235376535603L0,0Z" style="fill: rgb(105, 191, 105);"></path></g><g class="arc"><path d="M1.0180020644472834e-15,-16.625235376535603A16.625235376535603,16.625235376535603 0 1,1 -14.449672120454046,8.222251938282117L0,0Z" style="fill: rgb(105, 105, 191);"></path></g><text y="26.625235376535603" style="text-anchor: middle; font-size: 11px; font-family: Arial, Helvetica;">Taiwan</text></g><g transform="translate(500,1300)"><g class="arc"><path d="M-8.58454625629304,13.052183275098063A15.62222527917148,15.62222527917148 0 0,1 -9.19039618209985,-12.63291497197812L0,0Z" style="fill: rgb(191, 105, 105);"></path></g><g class="arc"><path d="M-9.19039618209985,-12.63291497197812A15.62222527917148,15.62222527917148 0 0,1 -2.8697562275544328e-15,-15.62222527917148L0,0Z" style="fill: rgb(105, 191, 105);"></path></g><g class="arc"><path d="M9.56585409184811e-16,-15.62222527917148A15.62222527917148,15.62222527917148 0 1,1 -8.58454625629304,13.052183275098063L0,0Z" style="fill: rgb(105, 105, 191);"></path></g><text y="25.62222527917148" style="text-anchor: middle; font-size: 11px; font-family: Arial, Helvetica;">Argentina</text></g><g transform="translate(700,1300)"><g class="arc"><path d="M-14.343365751370156,5.6788470056941875A15.426647218098307,15.426647218098307 0 0,1 -1.451768004656473,-15.358183943823436L0,0Z" style="fill: rgb(191, 105, 105);"></path></g><g class="arc"><path d="M-1.451768004656473,-15.358183943823436A15.426647218098307,15.426647218098307 0 0,1 -2.8338291205829267e-15,-15.426647218098307L0,0Z" style="fill: rgb(105, 191, 105);"></path></g><g class="arc"><path d="M9.446097068609756e-16,-15.426647218098307A15.426647218098307,15.426647218098307 0 1,1 -14.343365751370156,5.6788470056941875L0,0Z" style="fill: rgb(105, 105, 191);"></path></g><text y="25.426647218098307" style="text-anchor: middle; font-size: 11px; font-family: Arial, Helvetica;">Austria</text></g><g transform="translate(100,1500)"><g class="arc"><path d="M9.226480700368908e-16,-15.067986470536226A15.067986470536226,15.067986470536226 0 1,1 -8.437692501362703,12.48397218551493L0,0Z" style="fill: rgb(191, 105, 105);"></path></g><g class="arc"><path d="M-0.6631484969026578,-15.05338667367973A15.067986470536226,15.067986470536226 0 0,1 -2.767944210110672e-15,-15.067986470536226L0,0Z" style="fill: rgb(105, 191, 105);"></path></g><g class="arc"><path d="M-8.437692501362703,12.48397218551493A15.067986470536226,15.067986470536226 0 0,1 -0.6631484969026578,-15.05338667367973L0,0Z" style="fill: rgb(105, 105, 191);"></path></g><text y="25.067986470536226" style="text-anchor: middle; font-size: 11px; font-family: Arial, Helvetica;">United Arab Emirates</text></g><g transform="translate(300,1500)"><g class="arc"><path d="M1.6730366660996494,14.72993418281089A14.82464207716512,14.82464207716512 0 0,1 -9.592322243491646,-11.302980434074454L0,0Z" style="fill: rgb(191, 105, 105);"></path></g><g class="arc"><path d="M-9.592322243491646,-11.302980434074454A14.82464207716512,14.82464207716512 0 0,1 -2.723242570245815e-15,-14.82464207716512L0,0Z" style="fill: rgb(105, 191, 105);"></path></g><g class="arc"><path d="M9.077475234152716e-16,-14.82464207716512A14.82464207716512,14.82464207716512 0 0,1 1.6730366660996494,14.72993418281089L0,0Z" style="fill: rgb(105, 105, 191);"></path></g><text y="24.82464207716512" style="text-anchor: middle; font-size: 11px; font-family: Arial, Helvetica;">Iran</text></g><g transform="translate(500,1500)"><g class="arc"><path d="M-2.8601765937564947,14.497577361289835A14.777021333613078,14.777021333613078 0 0,1 -7.839311356238025,-12.526194831392875L0,0Z" style="fill: rgb(191, 105, 105);"></path></g><g class="arc"><path d="M-7.839311356238025,-12.526194831392875A14.777021333613078,14.777021333613078 0 0,1 1.0410136674392288e-14,-14.777021333613078L0,0Z" style="fill: rgb(105, 191, 105);"></path></g><g class="arc"><path d="M9.048315938570704e-16,-14.777021333613078A14.777021333613078,14.777021333613078 0 1,1 -2.8601765937564947,14.497577361289835L0,0Z" style="fill: rgb(105, 105, 191);"></path></g><text y="24.777021333613078" style="text-anchor: middle; font-size: 11px; font-family: Arial, Helvetica;">Colombia</text></g><g transform="translate(700,1500)"><g class="arc"><path d="M-2.432959001883197,14.203199315974434A14.410071488862958,14.410071488862958 0 0,1 -10.68850361387754,-9.664680585009927L0,0Z" style="fill: rgb(191, 105, 105);"></path></g><g class="arc"><path d="M-10.68850361387754,-9.664680585009927A14.410071488862958,14.410071488862958 0 0,1 -2.6470871886480832e-15,-14.410071488862958L0,0Z" style="fill: rgb(105, 191, 105);"></path></g><g class="arc"><path d="M8.823623962160278e-16,-14.410071488862958A14.410071488862958,14.410071488862958 0 1,1 -2.432959001883197,14.203199315974434L0,0Z" style="fill: rgb(105, 105, 191);"></path></g><text y="24.410071488862958" style="text-anchor: middle; font-size: 11px; font-family: Arial, Helvetica;">Thailand</text></g><g transform="translate(100,1700)"><g class="arc"><path d="M-13.71193397646674,-1.2093493957724712A13.765161071924958,13.765161071924958 0 0,1 -3.8404005711540554,-13.218584749855706L0,0Z" style="fill: rgb(191, 105, 105);"></path></g><g class="arc"><path d="M-3.8404005711540554,-13.218584749855706A13.765161071924958,13.765161071924958 0 0,1 -2.5286190669720973e-15,-13.765161071924958L0,0Z" style="fill: rgb(105, 191, 105);"></path></g><g class="arc"><path d="M8.428730223240324e-16,-13.765161071924958A13.765161071924958,13.765161071924958 0 1,1 -13.71193397646674,-1.2093493957724712L0,0Z" style="fill: rgb(105, 105, 191);"></path></g><text y="23.765161071924958" style="text-anchor: middle; font-size: 11px; font-family: Arial, Helvetica;">Denmark</text></g><g transform="translate(300,1700)"><g class="arc"><path d="M-11.475642135009185,7.384118785274609A13.646082684999513,13.646082684999513 0 0,1 -2.1346245744075434,-13.47809150333158L0,0Z" style="fill: rgb(191, 105, 105);"></path></g><g class="arc"><path d="M-2.1346245744075434,-13.47809150333158A13.646082684999513,13.646082684999513 0 0,1 -2.506744722162716e-15,-13.646082684999513L0,0Z" style="fill: rgb(105, 191, 105);"></path></g><g class="arc"><path d="M8.355815740542387e-16,-13.646082684999513A13.646082684999513,13.646082684999513 0 1,1 -11.475642135009185,7.384118785274609L0,0Z" style="fill: rgb(105, 105, 191);"></path></g><text y="23.646082684999513" style="text-anchor: middle; font-size: 11px; font-family: Arial, Helvetica;">South Africa</text></g><g transform="translate(500,1700)"><g class="arc"><path d="M-11.26908713759944,-2.7588540026301542A11.601879172040949,11.601879172040949 0 0,1 -2.386015918630974,-11.35387723901739L0,0Z" style="fill: rgb(191, 105, 105);"></path></g><g class="arc"><path d="M-2.386015918630974,-11.35387723901739A11.601879172040949,11.601879172040949 0 0,1 -1.2435769337395271e-14,-11.601879172040949L0,0Z" style="fill: rgb(105, 191, 105);"></path></g><g class="arc"><path d="M7.104102096067146e-16,-11.601879172040949A11.601879172040949,11.601879172040949 0 1,1 -11.26908713759944,-2.7588540026301542L0,0Z" style="fill: rgb(105, 105, 191);"></path></g><text y="21.60187917204095" style="text-anchor: middle; font-size: 11px; font-family: Arial, Helvetica;">Greece</text></g><g transform="translate(700,1700)"><g class="arc"><path d="M-6.4961306894289175,8.484360908063184A10.685695763608983,10.685695763608983 0 0,1 -3.1100255536087427,-10.223103002919984L0,0Z" style="fill: rgb(191, 105, 105);"></path></g><g class="arc"><path d="M-3.1100255536087427,-10.223103002919984A10.685695763608983,10.685695763608983 0 0,1 -1.962930467034926e-15,-10.685695763608983L0,0Z" style="fill: rgb(105, 191, 105);"></path></g><g class="arc"><path d="M6.543101556783087e-16,-10.685695763608983A10.685695763608983,10.685695763608983 0 1,1 -6.4961306894289175,8.484360908063184L0,0Z" style="fill: rgb(105, 105, 191);"></path></g><text y="20.685695763608983" style="text-anchor: middle; font-size: 11px; font-family: Arial, Helvetica;">Venezuela</text></g></svg>